<svg xmlns="http://www.w3.org/2000/svg" viewBox="0 0 969.1 824.47"><defs><style>.cls-1{fill:#fff;}.cls-2{fill:#4F4F4F;}.cls-3{fill:#edb2a2;}.cls-4{fill:#fff;}.cls-5{fill:#29cc8d;}.cls-6{fill:#868585;}.cls-11,.cls-12,.cls-7{fill:none;stroke-miterlimit:10;}.cls-7{stroke:#553ef9;}.cls-8{fill:#868585;}.cls-9{fill:#000000;}.cls-10{fill:#000000;}.cls-11{stroke:#000000;stroke-width:5px;}.cls-12{stroke:#29cc8d;stroke-width:7px;}</style></defs><g id="bg"><path class="cls-1" d="M309.42,725c66.5-2,108.39,1.29,174.11-9.6C552,704,640.43,684.45,723.44,707.91c39.69,11.21,77.88,12.28,118.44,5.33,15.88-2.72,76.93-40.51,175.12,11.73,32.39,17.23,22.81,69.57,21.26,74.63-11.14,36.25-35.43,59.71-135.93,64.89-90.72,4.69-434.65,8.12-517,4.41-69-3.1-155.69,2.85-222.7-16-20.15-5.66-42.75-33.13-35.56-68.36,5.19-25.46,40.19-45.28,62.89-53.18C224.62,719.3,273.06,726,309.42,725Z" transform="translate(-104.7 -46)"/></g><g id="girl"><path class="cls-1" d="M586.15,246h23.68a1,1,0,0,1,1,1v46.51a12.7,12.7,0,0,1-12.7,12.7h-.31a12.7,12.7,0,0,1-12.7-12.7V247a1,1,0,0,1,1-1Z"/><rect class="cls-1" x="594.68" y="295.92" width="5.88" height="60.22"/><path class="cls-1" d="M700,395.53l-12,4.25a2.09,2.09,0,0,0-1.48,2v.48a2.1,2.1,0,0,0,2.09,2.09h28.14a2.1,2.1,0,0,0,2.09-2.09h0a2.09,2.09,0,0,0-1.35-1.95l-12.76-4.78Z" transform="translate(-104.7 -46)"/><path class="cls-2" d="M588.37,270.28H607.6a0,0,0,0,1,0,0v20.87a9.5,9.5,0,0,1-9.5,9.5h-.23a9.5,9.5,0,0,1-9.5-9.5V270.28A0,0,0,0,1,588.37,270.28Z"/><polygon class="cls-3" points="731.96 219.62 728.04 236.44 760.7 244.36 760.7 223.58 731.96 219.62"/><path class="cls-3" d="M864.25,195.29a39,39,0,0,0-49.13,31.16,6.37,6.37,0,0,1-1.49,3.14l-8.91,10.25a1,1,0,0,0,.57,1.58L816,243a39,39,0,1,0,48.3-47.66Z" transform="translate(-104.7 -46)"/><path class="cls-4" d="M823.32,226.66c3.45-2.48,17.33-10.86,30,4.74a.84.84,0,0,1-.16,1.22c-3,2.09-15.25,8.94-29.89-4.65A.85.85,0,0,1,823.32,226.66Z" transform="translate(-104.7 -46)"/><circle class="cls-5" cx="733.69" cy="183.09" r="6.78"/><path class="cls-3" d="M835.71,783.27l56.42,2L874.27,444.84,783.16,433.7,697.83,582.53a43.29,43.29,0,0,0-3.69,28.57l19.18,125.27,54.66-1L753.56,609.07c-1.61-8.23,2.3-14,6-21.58l61.34-120Z" transform="translate(-104.7 -46)"/><path class="cls-5" d="M763.17,434.49l35.18-87.84c2.68-26,12.54-58.27,35.38-68.16l22.76,4c13.86,5.93,24.92,20.43,22.81,50.84l-1.09,17.45a432.79,432.79,0,0,0,4.11,92.6l.53,3.5a.72.72,0,0,1-.78.8L764.78,437.12A1.93,1.93,0,0,1,763.17,434.49Z" transform="translate(-104.7 -46)"/><circle class="cls-3" cx="602.09" cy="309.6" r="26.88"/><path class="cls-1" d="M837.84,219.86c7.17,4.6,15.1,8.83,19.51,16.12,4.08,6.75,4.45,15.09,3.72,22.94s-4.89,20.6-4.58,28.47c.27,6.84,2,9.3,4,15.84,1.56,5.08,5.85,9.52,9.3,13.57,4,4.72,10,7.43,16.06,8.76,13.05,2.86,27.9-.68,36.57-10.83s9.22-27.07-.36-36.37c-3.22-3.13-7.27-5.26-10.89-7.94a43.39,43.39,0,0,1-15.27-21.15c-4.61-14-2-30.2-9.32-43a30.9,30.9,0,0,0-42.2-11.43c.79-.45-11.1-6.41-12.9-6.46-5.3-.17-10.64,3.15-12,8.52C817.16,205.79,831.53,215.8,837.84,219.86Z" transform="translate(-104.7 -46)"/><path class="cls-6" d="M868.36,221l-16.58,5.84a1.79,1.79,0,0,0-.89,2.69L856,237a1.79,1.79,0,0,0,2.84.17l11.48-13.36A1.79,1.79,0,0,0,868.36,221Z" transform="translate(-104.7 -46)"/><path class="cls-6" d="M787.56,836.69h0a9.49,9.49,0,0,0,8.28,1.93c15.39-3.68,65.18-13.8,78.47-34.56v31.09a2.55,2.55,0,0,0,2.56,2.56h13.64a2.56,2.56,0,0,0,2.56-2.61l-.72-37.88-1.88-64.9H832.86a.76.76,0,0,1-.31,0l1.76,42.37a19.36,19.36,0,0,1-3.52,11.94c-9.7,13.85-21.33,22.51-36.73,31.69l-6.89,4.11A9.49,9.49,0,0,0,787.56,836.69Z" transform="translate(-104.7 -46)"/><path class="cls-6" d="M668.11,838.71h0a9.47,9.47,0,0,0,8.28,1.94c15.39-3.68,65.19-13.81,78.47-34.57v31.1a2.56,2.56,0,0,0,2.56,2.56h13.64a2.57,2.57,0,0,0,2.56-2.61l-.72-37.89L770,734.35H712.4s2.46,42.39,2.46,42.39a19.36,19.36,0,0,1-3.52,11.94c-9.7,13.85-21.32,22.52-36.73,31.7l-6.89,4.1A9.49,9.49,0,0,0,668.11,838.71Z" transform="translate(-104.7 -46)"/><path class="cls-6" d="M777.09,438.76,691.58,572.15S788.2,612,901.07,592.26l-25.79-145.4Z" transform="translate(-104.7 -46)"/><path class="cls-7" d="M823.22,257.44a10.06,10.06,0,0,0,5.89-4.87" transform="translate(-104.7 -46)"/><path class="cls-2" d="M775,488.49l-4-10.34c12.91-5.38,23.27-23.41,22.62-39.37s-4.64-26.21-8.5-36c-2.43-6.18-4.73-12-5.93-18.75-3.86-21.71-1.38-38.07,8.86-58.35,5.5-10.88,14.19-21.23,26.58-31.62,11.71-9.83,26-13.67,38.23-10.3A27.86,27.86,0,0,1,870,295.16c6.44,9.13,8.27,22.07,5.42,38.45-1.57,9.07-5.18,18.06-8.68,26.75-4.32,10.76-8.4,20.92-8.32,30.07.1,12.05,18.72,24,25.88,27.63l-4.62,10c-3.25-1.62-31.77-16.48-31.95-37.56-.09-11.44,4.61-23.14,9.16-34.47,3.27-8.14,6.65-16.56,8-24.43,2.27-13.07,1-23.4-3.52-29.88a16.91,16.91,0,0,0-10.28-7l-.37,0-.37-.1c-9-2.56-19.85.48-29,8.15-11.23,9.42-19,18.63-23.83,28.14-9.11,18-11.22,31.91-7.8,51.13,1,5.6,3,10.68,5.31,16.55,4,10.21,8.56,21.78,9.29,39.78C805.15,458.89,792,481.4,775,488.49Z" transform="translate(-104.7 -46)"/><path class="cls-3" d="M719.39,378,829.21,403.8a10.41,10.41,0,0,0,12.56-7.05l23.6-77.56a21.06,21.06,0,0,0-14.76-26.5h0A21.07,21.07,0,0,0,825.35,306L807.17,360.5l-76.64-17.9Z" transform="translate(-104.7 -46)"/><circle class="cls-2" cx="604.56" cy="208.24" r="3.04"/><circle class="cls-2" cx="593.96" cy="196.51" r="3.04"/><circle class="cls-2" cx="590.89" cy="220.95" r="3.04"/></g><g id="boy"><path class="cls-8" d="M728.88,369.64" transform="translate(-104.7 -46)"/><polygon class="cls-3" points="316.71 227.62 314.18 247.47 301.79 251.24 284.86 244.28 288.15 223.53 316.71 227.62"/><path class="cls-3" d="M454.76,267.7l-3.35-12.12a10.19,10.19,0,0,1,0-5.37,38.92,38.92,0,1,0-8.1,15.46l10.25,3.21A1,1,0,0,0,454.76,267.7Z" transform="translate(-104.7 -46)"/><path class="cls-4" d="M443.68,247.84c-2-3.72-10.94-17.22-29-8.62a.84.84,0,0,0-.38,1.17c1.83,3.18,9.89,14.6,28.91,8.66A.85.85,0,0,0,443.68,247.84Z" transform="translate(-104.7 -46)"/><circle class="cls-5" cx="324.37" cy="197.55" r="6.77"/><path class="cls-5" d="M428.38,276.28c-2.16-1.52-4.86-4.61-5.64-7.14l.95-.29c.71,2.33,3.23,5.2,5.26,6.63Z" transform="translate(-104.7 -46)"/><path class="cls-5" d="M461.75,214.34c4.65.69-2.05,15.26-11.34,17.2-14,2.92-29.82,2.24-43-3.39,1.76,7.72-2.15,17.72-7,22.69a29,29,0,0,1-18.4,8.65,5.24,5.24,0,0,1-2.58-.27,5.43,5.43,0,0,1-2.09-2,36.32,36.32,0,0,1-4.81-30.3c3.33-11.4,12.4-20.64,23.19-25.59s18.13-6.41,29.74-4C437.53,199.85,443.53,211.64,461.75,214.34Z" transform="translate(-104.7 -46)"/><polygon class="cls-3" points="382.89 745.87 333.9 745.87 330.52 712.09 380.35 712.09 382.89 745.87"/><path class="cls-9" d="M438.6,837.64V797.15a1.9,1.9,0,0,1,1.9-1.9h44.89a1.91,1.91,0,0,1,.94.25l72.21,41.06Z" transform="translate(-104.7 -46)"/><rect class="cls-2" x="329.67" y="783.88" width="122.47" height="12.67" rx="6.26"/><path class="cls-2" d="M488.71,796.1H439.16a1.41,1.41,0,0,1-1.41-1.41l-.84-9.85a1.41,1.41,0,0,1,1.41-1.41h49.55a1.41,1.41,0,0,1,1.41,1.41l.84,9.85A1.41,1.41,0,0,1,488.71,796.1Z" transform="translate(-104.7 -46)"/><polygon class="cls-3" points="166.82 728.61 123.65 705.44 140.47 673.12 184.37 696.69 166.82 728.61"/><path class="cls-9" d="M206.71,791.76l19.15-35.67a1.9,1.9,0,0,1,2.57-.78L268,776.55a1.87,1.87,0,0,1,.71.66l44.19,70.33Z" transform="translate(-104.7 -46)"/><rect class="cls-2" x="196.38" y="811.14" width="122.47" height="12.67" rx="6.26" transform="translate(312.59 -70.63) rotate(28.23)"/><path class="cls-2" d="M270.51,778.86l-43.66-23.43a1.41,1.41,0,0,1-.57-1.91l3.91-9.08a1.42,1.42,0,0,1,1.91-.58l43.66,23.44a1.41,1.41,0,0,1,.57,1.91l-3.91,9.08A1.41,1.41,0,0,1,270.51,778.86Z" transform="translate(-104.7 -46)"/><rect class="cls-3" x="597.58" y="266.48" width="34.3" height="51.44" transform="translate(333.01 -411.02) rotate(49.5)"/><rect class="cls-3" x="172.07" y="428.39" width="34.3" height="51.44" transform="matrix(0.5, 0.86, -0.86, 0.5, 382.35, 16.55)"/><path class="cls-5" d="M489.07,610.25l12.29,150.66-71.45,5.72L415.62,601.82,389,481.78,367.1,599.46a70,70,0,0,1-6.47,19L288,760.91l-62.87-32.39,76.21-142.9,30.49-158.14,113.56-.87,36.8,142.6A243.84,243.84,0,0,1,489.07,610.25Z" transform="translate(-104.7 -46)"/><path class="cls-2" d="M314.38,318.92l-61.09,62.92-72.91,45.35a2.54,2.54,0,0,0-.93,3.3l23,45.91a2.54,2.54,0,0,0,3.64,1l82.7-52.48a17.59,17.59,0,0,0,4.33-3.34l43.86-47.52-8,57.07,120.12,4.29-1.43-79.82,67.17,44.88a9.52,9.52,0,0,0,11-.5l99.33-81.43a2.82,2.82,0,0,0,.38-4l-29.79-36a2.83,2.83,0,0,0-4-.4L518.55,337.1l-48-32.41c-18.13-11.16-33.44-16.4-54.73-16.4l-8.9,8.91-13.64-9.58A115.05,115.05,0,0,0,314.38,318.92Z" transform="translate(-104.7 -46)"/><circle class="cls-3" cx="54.19" cy="424.61" r="27.63"/><circle class="cls-3" cx="532.89" cy="229.05" r="27.63"/><polygon class="cls-10" points="272.54 241.93 288.33 266.05 302.19 251.2 287.34 229.43 272.54 241.93"/><path class="cls-3" d="M405.9,292.25" transform="translate(-104.7 -46)"/><path class="cls-1" d="M528.27,175.12h22a1.85,1.85,0,0,1,1.85,1.85v45.68a12.7,12.7,0,0,1-12.7,12.7h-.31a12.7,12.7,0,0,1-12.7-12.7V177a1.85,1.85,0,0,1,1.85-1.85Z"/><rect class="cls-1" x="535.97" y="225.06" width="5.88" height="60.22"/><path class="cls-1" d="M641.33,324.67l-12,4.25a2.09,2.09,0,0,0-1.47,2v.48a2.09,2.09,0,0,0,2.09,2.09h28.14a2.09,2.09,0,0,0,2.08-2.09h0a2.08,2.08,0,0,0-1.34-1.95L646,324.67Z" transform="translate(-104.7 -46)"/><path class="cls-2" d="M529.66,200.43h19.23a0,0,0,0,1,0,0V221.3a9.5,9.5,0,0,1-9.5,9.5h-.23a9.5,9.5,0,0,1-9.5-9.5V200.43A0,0,0,0,1,529.66,200.43Z"/><circle class="cls-2" cx="531.68" cy="149.82" r="3.04"/><circle class="cls-2" cx="541.81" cy="161.96" r="3.04"/><circle class="cls-2" cx="545.86" cy="137.67" r="3.04"/><path class="cls-6" d="M336.6,510l-5.1-8.75c9.84-5.73,16.36-11.42,20.53-17.89,5-7.7,6.21-16.79,3.23-23.72-1.5-3.49-4.08-6.68-6.81-10.05-3.7-4.56-7.52-9.28-9.3-15.46-3.81-13.28,3.66-25.33,10.25-36,1.75-2.83,3.41-5.5,4.86-8.17A63.83,63.83,0,0,0,362,359c-.06-7.09-1.28-14.09-2.57-21.5-.6-3.45-1.22-7-1.71-10.57-1.28-9.3-2.31-23.06,3.46-35.29,5.17-10.95,17.17-17.95,30.94-15.93a.16.16,0,0,1,.09.27l-7.7,7.69a2.31,2.31,0,0,1-.39.31c-1.58,1-11.56,7.28-13.78,12-3.52,7.45-4.34,16.85-2.59,29.59.46,3.38,1.07,6.86,1.65,10.22,1.31,7.48,2.66,15.22,2.72,23.15a73.78,73.78,0,0,1-9,35.87c-1.59,2.92-3.4,5.84-5.15,8.66-6,9.71-11.69,18.87-9.12,27.84,1.21,4.2,4.23,7.93,7.43,11.88,3.05,3.76,6.2,7.64,8.25,12.43,4.29,10,2.75,22.7-4,33.2C355.47,496.69,347.86,503.41,336.6,510Z" transform="translate(-104.7 -46)"/><path class="cls-6" d="M384.24,283.29" transform="translate(-104.7 -46)"/><path class="cls-6" d="M414,441.8a24,24,0,0,1-.94-20.89c1.94-4.42,5.07-8,8.09-11.39,3.82-4.33,7.11-8.06,7-12.3-.11-3.35-2.39-6.49-5-10.12-2.34-3.23-5-6.88-6.29-11.25-2.31-7.83.05-17,6.66-25.75,2-2.61,4.1-5,6.17-7.34a69.47,69.47,0,0,0,8.05-10.24,32.07,32.07,0,0,0-20-47.59l3.07-6.11c12.62,3.06,22.77,9.17,27.8,21.14a42.38,42.38,0,0,1-2.63,37.48,77.94,77.94,0,0,1-9.12,11.7c-2,2.28-3.95,4.44-5.68,6.73-2.74,3.64-7.05,10.72-5.11,17.26.82,2.78,2.78,5.48,4.85,8.33,3.11,4.29,6.64,9.15,6.85,15.44.27,8.05-4.84,13.85-9.36,19-2.65,3-5.16,5.86-6.51,8.91a14.21,14.21,0,0,0,.56,12.38Z" transform="translate(-104.7 -46)"/><path class="cls-6" d="M426.84,277.81" transform="translate(-104.7 -46)"/><polygon class="cls-10" points="302.19 251.2 315.68 232.78 325.18 244.97 310.1 267.04 302.19 251.2"/><path class="cls-11" d="M183.15,494.85c4.45,6.37,9,13.11,9.85,20.84,1,10.13-4.6,19.58-7.57,29.32-3.17,10.38-3,22.64,4,31" transform="translate(-104.7 -46)"/><rect class="cls-3" x="210.09" y="487.59" width="6.58" height="115.16" transform="translate(-356.72 144) rotate(-31.28)"/><path class="cls-6" d="M145.68,413.71h31.81a0,0,0,0,1,0,0v94.81a3.89,3.89,0,0,1-3.89,3.89h-24a3.89,3.89,0,0,1-3.89-3.89V413.71a0,0,0,0,1,0,0Z" transform="translate(-321.62 105.18) rotate(-31.28)"/><path class="cls-6" d="M117.1,389.72l1.76,56a.56.56,0,0,0,.85.46l47.1-28.61a.56.56,0,0,0,0-1l-48.87-27.36A.56.56,0,0,0,117.1,389.72Z" transform="translate(-104.7 -46)"/><polygon class="cls-1" points="52.07 378.4 42.15 423.44 55.82 445.94 64.77 399.31 52.07 378.4"/><path class="cls-1" d="M190.51,503.58l3.44-18-12.7-20.91-9.91,45h0a5.25,5.25,0,0,0,7.41,1.65Z" transform="translate(-104.7 -46)"/><path class="cls-1" d="M174.18,514.44" transform="translate(-104.7 -46)"/></g><g id="fireworks"><path class="cls-10" d="M261.58,227c-6.54-38.6-3.87-77.73,18.63-113.06,3-4.63,9.57-8.24,14.42-5.61h0c4.9,2.66,5.08,10.3,1.89,15.21a186.91,186.91,0,0,0-18.83,36c-7.88,20-12.77,53.46-14.21,67.38A1,1,0,0,1,261.58,227Z" transform="translate(-104.7 -46)"/><path class="cls-10" d="M246.83,250c-41.22,4.27-80.56,17-110.76,46.84-4,3.9-5.91,10.87-1.93,14.58h0c4,3.76,11.89,1.89,16.07-2.3a199.74,199.74,0,0,1,31.84-26.63c18.39-12.45,51.33-25.75,65.2-30.75A.9.9,0,0,0,246.83,250Z" transform="translate(-104.7 -46)"/><path class="cls-2" d="M227.25,236.23c-16-.93-68.11-2.43-108.45,14-6.1,2.49-12.94-.93-14-7.08h0A10,10,0,0,1,112.49,232c35.72-9.48,76.5-10.07,115.06,3A.66.66,0,0,1,227.25,236.23Z" transform="translate(-104.7 -46)"/><path class="cls-2" d="M240.25,208.81c-4.09-14.65-15.78-62.6-6.57-103.15,1.4-6.14-3.48-11.8-10.07-11.56h0a10.35,10.35,0,0,0-10.09,9.26c-2.9,34.92,4.43,72.8,25.46,106A.7.7,0,0,0,240.25,208.81Z" transform="translate(-104.7 -46)"/><path class="cls-6" d="M247.86,235.78,149.37,178.3a10.48,10.48,0,0,1-3.22-15.76h0a12,12,0,0,1,17.18-1.71l85.06,74.27Z" transform="translate(-104.7 -46)"/><path class="cls-1" d="M546.67,142.94c21.64,10.28,40.44,25.07,50.61,47.87,1.33,3,.91,7.34-2.06,8.71h0c-3,1.39-6.9-1.17-8.29-4.37a113.74,113.74,0,0,0-11.75-21.3c-7.4-10.62-22.58-24.49-29.11-30A.55.55,0,0,1,546.67,142.94Z" transform="translate(-104.7 -46)"/><path class="cls-5" d="M536,124.64c-6.25-23.13-17.44-44.27-38.06-58.35-2.7-1.84-7.06-2.21-8.94.47h0c-1.9,2.71-.07,7,2.82,8.95a113.51,113.51,0,0,1,18.86,15.35c9.13,9.18,20.07,26.6,24.31,34A.55.55,0,0,0,536,124.64Z" transform="translate(-104.7 -46)"/><path class="cls-6" d="M549,117c1.32-9.21,4.66-39.23-3.46-63.11a5.9,5.9,0,0,1,5-7.81h0A6,6,0,0,1,557,50.85a110.85,110.85,0,0,1-7.19,66.32A.4.4,0,0,1,549,117Z" transform="translate(-104.7 -46)"/><path class="cls-6" d="M515.47,127.37c-9.27-.81-39.44-2.53-62.83,6.88a5.91,5.91,0,0,1-8.08-4.54h0A6,6,0,0,1,449,123a110.88,110.88,0,0,1,66.61,3.58A.4.4,0,0,1,515.47,127.37Z" transform="translate(-104.7 -46)"/><path class="cls-6" d="M561.58,133.43c9.23,1.15,39.08,5.81,60,19.92a5.91,5.91,0,0,0,8.85-2.74h0a6,6,0,0,0-3-7.48,110.9,110.9,0,0,0-65.88-10.49A.4.4,0,0,0,561.58,133.43Z" transform="translate(-104.7 -46)"/><path class="cls-6" d="M540.16,161.55c.21,9.3,0,39.51-11,62.24a5.91,5.91,0,0,0,4,8.35h0a6,6,0,0,0,7-4,111,111,0,0,0,.79-66.71A.4.4,0,0,0,540.16,161.55Z" transform="translate(-104.7 -46)"/><path class="cls-2" d="M560.76,119.23l49.67-45.91a6.66,6.66,0,0,1,9.83.65h0a6.67,6.67,0,0,1-1.73,9.83l-57.46,35.83Z" transform="translate(-104.7 -46)"/><path class="cls-2" d="M525.51,143.21l-45.19,43.9a7,7,0,0,1-10.37-.69h0c-2.63-3.3-1.78-8.16-1-9.75l56.26-33.88Z" transform="translate(-104.7 -46)"/><circle class="cls-5" cx="161.19" cy="461.6" r="12.15"/><path class="cls-12" d="M812.81,79.77c-7.5-11.93-24.95-16.24-37.15-9.16a18.32,18.32,0,0,0-7.06,6.8c-3.94,7.17-.78,16.11,3.31,23.19,3,5.25,5.79,9.64,10.61,13.23,8.57,6.36,20.54-4,13.78-12.21-.07-.08-20.67-19.1-44.15-1.05-4.32,3.33-5.87,6.57-7.85,11.65s-1.31,12.86-.09,16.88c2.45,8.1,3.41,12.69,10.32,21.2,2.78,3.42,7.61,7.19,12,8.5a7.82,7.82,0,0,0,7.15-1.18c3.82-3.06,3.23-10.25,1.18-14.38-4.26-8.6-10.85-14.28-20.33-15.75s-22,3.5-26.57,11.91c-4.18,7.62-3.27,17.24.37,25.13s9.7,14.38,15.81,20.56" transform="translate(-104.7 -46)"/><rect class="cls-6" x="953.51" y="459.1" width="18.32" height="44.97" transform="translate(588.59 -606.57) rotate(48.93)"/><rect class="cls-5" x="624.73" y="381.65" width="14.17" height="34.79" transform="translate(1222.08 78.34) rotate(126.16)"/><circle class="cls-6" cx="586.43" cy="50.19" r="13.07"/><circle class="cls-1" cx="930.18" cy="365.08" r="22.61"/><circle class="cls-8" cx="458.16" cy="413.77" r="16.44"/><path class="cls-2" d="M654.57,459.18a46.73,46.73,0,0,1-23.33,33.47s19.27,8.11,21.3,32.44c0,0,7.1-25.35,25.35-32.44C677.89,492.65,661.66,487.58,654.57,459.18Z" transform="translate(-104.7 -46)"/><path class="cls-2" d="M375.29,100.44l-14.53-2.12a1,1,0,0,0-1,1.51l7.82,12.92a1,1,0,0,1-.08,1.15l-9.6,12a1,1,0,0,0,1,1.59l15.91-4.28a1,1,0,0,1,1,.29l11.28,12.29a1,1,0,0,0,1.74-.75l-1.08-14.86a1,1,0,0,1,.68-1l14-4.71a1,1,0,0,0,.16-1.84L389,105.24a1,1,0,0,1-.53-.81l-1.08-13.76a1,1,0,0,0-1.73-.61l-9.47,10.07A1,1,0,0,1,375.29,100.44Z" transform="translate(-104.7 -46)"/><path class="cls-6" d="M647.59,654c-17.85,1-31.78-13.82-37.16-28.08-3.91-10.36-4.85-21.3-5.77-31.88-.34-3.95-.69-8-1.2-12-2.16-16.85-7.76-28.61-16.64-34.93-6.83-4.86-15.46-6.58-24.59-8.4-8.08-1.61-16.44-3.27-24-7.27-14.58-7.71-24-23.8-23.36-40.05l9.43.31a35,35,0,0,0,18.43,31.59c6.34,3.35,13.66,4.81,21.41,6.35,9.72,1.94,19.77,3.94,28.25,10,11.07,7.88,18,21.76,20.45,41.24.53,4.13.89,8.32,1.24,12.36.9,10.43,1.75,20.27,5.22,29.45,4.35,11.53,15.28,22.82,27.76,22.08Z" transform="translate(-104.7 -46)"/><path class="cls-5" d="M1063.28,308.53A60.33,60.33,0,0,1,1020.67,334a114.45,114.45,0,0,1-16.94.21,104.73,104.73,0,0,0-15.48.15c-25.06,2.76-46.19,28.18-44.34,53.32l-9.8.72c-2.26-30.63,22.53-60.45,53.07-63.81a114.16,114.16,0,0,1,16.92-.21,104.87,104.87,0,0,0,15.49-.15,49.91,49.91,0,0,0,42.05-64.83l9.36-3a60.29,60.29,0,0,1-6.77,50.72C1063.92,307.59,1063.6,308.06,1063.28,308.53Z" transform="translate(-104.7 -46)"/><path class="cls-2" d="M1056.65,524.76l.93,8.33A76,76,0,0,0,1002,568.71c-.71,1.18-1.34,2.33-1.91,3.45,10.59-3.08,22.23-2.56,32,4,6.7,4.52,10.67,11.15,10.6,17.75a17.36,17.36,0,0,1-5.65,12.48,27.06,27.06,0,0,1-19,7.06c-15.17-.46-28.48-12.1-29.81-26a38.06,38.06,0,0,0-3.08,2.67C972.85,602.06,967.38,620,964,634.23l-8.16-1.93c3.65-15.38,9.62-34.76,23.54-48.21a49,49,0,0,1,10-7.38,49.53,49.53,0,0,1,5.52-12.32A84.48,84.48,0,0,1,1056.65,524.76Zm-48.8,77.43a23.65,23.65,0,0,0,10.51,2.9,18.68,18.68,0,0,0,12.91-4.73,9,9,0,0,0,3.07-6.51c.05-4.44-3.54-8.45-6.9-10.72-9-6-20.79-5.27-30.72-.76a19.53,19.53,0,0,0-.1,4.1C997.16,592.91,1001.69,598.82,1007.85,602.19Z" transform="translate(-104.7 -46)"/><path class="cls-8" d="M940.52,232.34A208.93,208.93,0,0,1,997.17,251a6.79,6.79,0,0,0,7.85-1.22h0a7,7,0,0,0-1.75-11.16c-7.41-3.77-16.35-5.08-24.16-6.77-8.44-1.83-26.64-1.74-38.44-1.45A1,1,0,0,0,940.52,232.34Z" transform="translate(-104.7 -46)"/><path class="cls-8" d="M903.79,181.62c-4.59-12-13.83-32.51-29.06-52.08a6.76,6.76,0,0,1-.29-7.93h0a7,7,0,0,1,11.28-.41c5.12,6.57,8.09,15.1,11.23,22.44,3.4,7.94,6.77,25.83,8.71,37.47A1,1,0,0,1,903.79,181.62Z" transform="translate(-104.7 -46)"/><path class="cls-2" d="M935.06,214.32a2.08,2.08,0,0,0,1.81.44c23.29-5.35,36.57-5.58,54.56-3.84,7.07.68,13.63,3,20.54,1.4,3.65-.85,7.64-3.08,7.42-7.18a6.31,6.31,0,0,0-2.26-4.38c-2.75-2.39-6.38-2.71-9.85-2.82-24.36-.79-48.22,6.07-71.51,13.44-1.6.51-2,1.87-.71,2.94Z" transform="translate(-104.7 -46)"/><path class="cls-2" d="M916.64,189.84a2.13,2.13,0,0,1-.22-1.85c8-22.52,9.78-35.68,10.14-53.75.14-7.11-1.43-13.89,1-20.57,1.28-3.52,4-7.23,8-6.54a6.37,6.37,0,0,1,4.09,2.76c2.06,3,2,6.65,1.66,10.11-2,24.29-11.62,47.19-21.64,69.47-.69,1.53-2.09,1.77-3,.37Z" transform="translate(-104.7 -46)"/><path class="cls-8" d="M927.91,201.23c1.12.69,4-1.58,4.94-2.53,4.2-4.35,27.92-33.75,63.94-47.61,4.89-1.88,10.21-6,7.83-10.59h0c-1.86-3.62-5.62-4.75-9.56-3.65a64.34,64.34,0,0,0-18.46,9c-11.2,8.18-38.57,38.62-46.77,48.93-1,1.31-4.52,4.8-1.92,6.41Z" transform="translate(-104.7 -46)"/></g></svg>
